<svg width="722" height="544" viewBox="0 0 722 544" fill="none" xmlns="http://www.w3.org/2000/svg">
<g filter="url(#filter0_d_3349_40)">
<path d="M142.918 100.306C142.918 98.9315 143.147 98.369 143.426 99.0565C143.707 99.744 143.707 100.869 143.426 101.556C143.147 102.244 142.918 101.681 142.918 100.306Z" fill="#FF00FF"/>
<path d="M669.516 107.617C131.887 -78.7811 400.701 14.4179 669.516 107.617V107.617Z" fill="#FF00FF"/>
<path d="M181.166 123.723C181.215 122.558 181.454 122.321 181.776 123.119C182.067 123.841 182.032 124.703 181.696 125.035C181.361 125.368 181.123 124.777 181.166 123.723Z" fill="#FF00FF"/>
<path d="M664.644 127.806C664.626 159.116 664.644 102.724 664.644 127.806V127.806Z" fill="#FF00FF"/>
<path d="M612.006 157.306C612.006 155.381 612.214 154.594 612.468 155.556C612.721 156.519 612.721 158.094 612.468 159.056C612.214 160.019 612.006 159.231 612.006 157.306Z" fill="#FF00FF"/>
<path d="M100.128 173.083C-57.9099 -56.9592 21.1089 58.0619 100.128 173.083V173.083Z" fill="#FF00FF"/>
<path d="M180.237 210.306C180.237 208.931 180.466 208.369 180.746 209.056C181.026 209.744 181.026 210.869 180.746 211.556C180.466 212.244 180.237 211.681 180.237 210.306Z" fill="#FF00FF"/>
<path d="M98.7248 235.806C-58.3774 -36.0513 20.1737 99.8776 98.7248 235.806V235.806Z" fill="#FF00FF"/>
<path d="M464.814 273.307C464.814 270.282 465.003 269.044 465.234 270.557C465.466 272.069 465.466 274.544 465.234 276.057C465.003 277.569 464.814 276.332 464.814 273.307Z" fill="#FF00FF"/>
<path d="M449.616 288.307C449.616 286.382 449.824 285.594 450.078 286.557C450.331 287.519 450.331 289.094 450.078 290.057C449.824 291.019 449.616 290.232 449.616 288.307Z" fill="#FF00FF"/>
<path d="M105.458 146.865C-56.1331 -65.6984 24.6623 40.5833 105.458 146.865V146.865Z" fill="#FF00FF"/>
<path d="M179.324 311.807C179.335 309.607 179.541 308.824 179.782 310.068C180.024 311.312 180.014 313.112 179.762 314.068C179.51 315.024 179.312 314.006 179.324 311.807Z" fill="#FF00FF"/>
<path d="M648.385 369.307C648.385 366.282 648.574 365.044 648.806 366.557C649.037 368.069 649.037 370.544 648.806 372.057C648.574 373.569 648.385 372.332 648.385 369.307Z" fill="#FF00FF"/>
<path d="M280.045 423.705C256.803 421.95 227.516 415.922 217.409 410.812C211.62 407.885 204.973 400.767 201.522 393.802C195.795 382.238 195.359 377.844 195.326 331.364C195.31 308.264 194.843 263.939 194.289 232.864C192.559 135.887 192.564 132.785 194.474 129.364C200.139 119.219 211.758 115.07 231.412 116.173C243.339 116.843 245.894 117.963 249.115 123.935C250.876 127.2 250.935 130.847 250.362 200.364C249.718 278.664 250.625 319.514 253.282 331.83C255.825 343.612 261.619 351.634 270.968 356.317C277.78 359.729 281.312 360.651 295.952 362.836C318.374 366.183 318.373 366.181 318.373 392.364C318.373 407.508 318.071 411.557 316.742 414.163C314.082 419.385 311.225 421.812 305.895 423.382C300.426 424.992 297.564 425.028 280.045 423.705Z" fill="#CDE491"/>
<path d="M663.651 422.307C663.651 408.282 663.793 402.544 663.966 409.557C664.139 416.569 664.139 428.044 663.966 435.057C663.793 442.069 663.651 436.332 663.651 422.307Z" fill="#FF00FF"/>
<path d="M687.673 481.807C687.684 479.607 687.891 478.824 688.132 480.068C688.374 481.312 688.365 483.112 688.113 484.068C687.86 485.024 687.662 484.006 687.673 481.807Z" fill="#FF00FF"/>
<path d="M509.66 495.62C78.601 50.5532 294.131 273.087 509.66 495.62V495.62Z" fill="#FF00FF"/>
<path d="M347.006 494.828C340.904 493.593 329.103 491.198 320.782 489.506C245.627 478.991 121.02 491.194 119.72 466.105L110.909 296.201C105.742 196.565 111.789 112.498 112.081 109.677C112.775 103.003 115.738 100.031 121.807 99.9223C124.178 99.88 126.911 100.16 127.881 100.545C129.554 101.207 129.646 110.743 129.646 281.126V461.008L159.149 461.605C221.104 462.86 274.713 471.095 335.407 488.682C363.92 496.944 367.915 499.061 347.006 494.828Z" fill="#FD9C94"/>
<path d="M97.8852 309.806C-58.6572 -11.3846 19.614 149.211 97.8852 309.806V309.806Z" fill="#FF00FF"/>
<path d="M390.516 505.576C386.354 504.68 374.085 492.361 371.975 489.168C369.65 485.65 379.336 492.486 384.876 494.445C392.148 497.017 403.508 487.701 409.707 486.053C412.757 485.242 413.883 493.916 409.157 499.307C408.992 499.495 409.952 498.387 409.22 499.572C406.258 504.366 397.683 507.119 390.516 505.576Z" fill="#FD9C94"/>
<path d="M492.501 518.571C72.8814 58.2036 282.691 288.387 492.501 518.571V518.571Z" fill="#FF00FF"/>
<path d="M707.497 520.499C692.839 508.991 702.12 502.965 702.888 481.556C703.818 369.157 703.807 283.927 703.807 167.202L703.67 162.846C703.549 159.025 694.928 160.41 693.917 160.091C692.281 159.577 685.938 145.755 688.51 146.049C696.832 146.998 684.565 146.564 688.678 146.573C697.339 146.592 712.869 152.831 716.045 158.221C718.035 161.601 718.053 163.401 717.804 338.65C717.597 483.426 716.064 515.773 714.965 518.382C708.562 526.255 712.026 523.792 707.497 520.499Z" fill="#FFE6C7"/>
<path d="M402.901 529.677L401.652 520.32C395.819 513.682 438.417 509.658 458.964 506.6C533.868 503.826 611.053 499.937 678.219 504.688C689.314 505.483 695.228 507.461 696.5 507.461C697.773 507.462 699.444 507.071 699.359 507.759C699.01 510.596 704.022 517.472 707.796 520.224C714.173 524.873 711.342 525.451 690.376 523.779C639.572 519.534 621.095 522.236 582.081 522.214C540.45 522.22 533.093 523.388 512.827 524.593C429.6 523.355 473.082 524.285 427.702 527.101C420.422 516.888 414.361 543.561 402.901 529.677ZM259.571 494.623C260.298 494.334 261.169 494.37 261.504 494.702C261.84 495.034 261.243 495.271 260.18 495.227C259.005 495.179 258.766 494.943 259.571 494.623ZM526.009 480.252C578.582 465.394 720.174 521.978 636.483 469.439L663.716 461.765L668.255 287.619C668.793 51.7536 675.646 170.409 673.803 295.436L671.281 473.845L666.742 473.863C657.036 473.901 647.344 474.814 612.78 474.875C561.716 474.823 510.279 482.359 469.906 488.39C469.452 488.75 523.969 479.4 526.009 480.252ZM378.778 450.665C370.965 449.266 366.013 445.658 365.071 440.675C364.726 438.854 365.155 422.164 366.022 403.585C368.052 360.135 370.09 267.614 369.587 241.735C369.197 221.714 369.188 221.648 366.148 215.735C363.926 211.415 361.786 208.932 358.258 206.583C352.316 202.628 348.644 201.561 336.624 200.298C318.915 198.436 317.961 196.894 318.435 170.904C318.793 151.264 319.63 147.831 324.611 145.581C326.357 144.793 338.391 144.627 365.788 145.015C390.347 145.363 411.504 145.136 423.662 144.393C463.515 141.96 467.697 141.935 471.149 144.111C477.864 148.346 479.12 157.729 476.086 181.005C473.406 201.562 470.681 207.442 462.29 210.771C459.954 211.698 451.229 213.791 442.903 215.423C424.869 218.957 417.706 221.894 411.764 228.192C401.129 239.465 395.312 262.478 393.406 300.806C392.405 320.963 395.538 359.56 400.452 387.609C404.221 409.122 406.292 424.512 406.399 431.806C406.541 441.515 404.604 444.946 397.214 448.079C392.237 450.188 383.2 451.456 378.778 450.665ZM590.565 358.741C590.025 357.331 589.582 355.081 589.582 353.741C589.582 350.787 589.526 350.784 584.351 353.401C579.458 355.876 571.89 356.112 567.62 353.923C564.612 352.381 560.272 347.342 558.906 343.806C557.138 339.228 556.418 329.513 557.349 322.806C559.502 307.309 566.695 296.025 576.479 292.803C579.225 291.899 582.389 291.417 583.51 291.733C584.631 292.048 586.518 292.581 587.704 292.918C589.75 293.498 589.835 293.265 589.358 288.347C588.711 281.671 584.375 275.265 579.579 273.901C576.472 273.018 575.965 273.198 573.555 276.041C572.106 277.748 570.207 280.16 569.334 281.4C566.87 284.896 559.106 287.149 559.106 282.087C559.106 277.305 567.119 269.015 571.456 266.791C578.625 263.116 591.077 266.848 596.525 274.305C602.628 282.657 603.216 286.172 603.044 313.306C602.807 350.886 600.968 361.306 594.575 361.306C592.255 361.306 591.32 360.708 590.565 358.741ZM585.97 344.767L588.573 343.076V303.306H584.574C578.908 303.306 573.916 307.813 571.996 314.663C569.677 322.939 569.15 328.082 569.907 335.085C570.493 340.512 571.135 342.171 573.59 344.605C576.058 347.053 577.142 347.46 579.966 347.006C581.837 346.705 584.539 345.697 585.97 344.767ZM99.0908 249.556C-58.2554 -31.468 20.4178 109.044 99.0908 249.556V249.556Z" fill="#FFE6C7"/>
<path d="M462.227 492.665C460.945 492.856 427.926 497.574 430.455 497.945C432.623 498.262 429.104 497.008 428.004 496.522C426.721 495.955 467.67 488.68 475.09 486.729C529.077 472.529 564.989 458.384 618.87 459.268L651.391 459.801L660.453 289.312C665.596 192.565 661.218 112.907 661.537 112.592C661.855 112.276 665.001 111.953 668.528 111.874C679.813 111.621 678.609 89.2477 678.609 299.129V482.038C651.995 478.479 629.685 478.556 609.013 478.568C562.208 479.375 519.244 480.963 472.149 491.055C466.75 491.962 468.398 491.747 466.139 492.083L462.227 492.665ZM371.267 456.921C363.453 455.523 361.711 450.058 360.768 445.076C360.423 443.254 361.386 425.857 362.255 407.278C364.285 363.828 366.323 271.307 365.819 245.428C365.43 225.407 365.421 225.341 362.38 219.428C360.159 215.108 358.019 212.625 354.49 210.276C348.549 206.321 344.877 205.255 332.856 203.991C315.147 202.129 314.194 200.587 314.668 174.597C315.026 154.957 315.863 151.524 320.843 149.275C322.589 148.486 334.623 148.32 362.021 148.708C386.58 149.056 407.736 148.829 419.895 148.086C459.748 145.653 463.93 145.628 467.381 147.804C474.097 152.039 475.353 161.422 472.319 184.698C469.639 205.255 466.913 211.135 458.523 214.464C456.187 215.391 447.462 217.484 439.135 219.116C421.101 222.65 413.939 225.587 407.997 231.885C397.362 243.158 391.543 266.171 389.639 304.5C388.638 324.656 391.77 363.254 396.684 391.302C400.453 412.815 402.523 428.205 402.63 435.5C402.773 445.208 402.174 450.142 394.784 453.274C389.808 455.384 375.688 457.712 371.267 456.921ZM586.798 362.434C586.258 361.024 585.815 358.774 585.815 357.434C585.815 354.481 585.759 354.477 580.584 357.094C575.691 359.569 568.122 359.805 563.853 357.616C560.845 356.074 556.504 351.035 555.139 347.5C553.371 342.921 552.495 333.162 553.426 326.455C555.026 314.932 554.464 315.84 557.414 308.393C562.387 299.712 570.426 291.751 577.192 290.177C579.938 289.272 582.456 290.602 583.577 290.918C584.697 291.234 584.444 291.767 585.63 292.103C587.677 292.683 586.067 296.958 585.591 292.04C584.943 285.364 580.607 278.958 575.812 277.594C572.705 276.711 572.198 276.891 569.788 279.734C568.339 281.441 566.44 283.853 565.565 285.093C563.102 288.589 560.54 287.204 560.153 282.156C559.796 277.507 563.352 272.708 567.689 270.484C574.858 266.809 587.31 270.541 592.758 277.998C598.86 286.35 599.447 289.865 599.277 317C599.04 354.58 597.201 365 590.806 365C588.488 365 587.553 364.401 586.798 362.434ZM582.203 348.461L582.31 348.184L584.806 326.885V307H580.807C575.139 307 570.149 311.506 568.229 318.356C565.909 326.632 565.383 331.775 566.139 338.778C566.725 344.205 567.367 345.864 569.823 348.298C572.291 350.746 573.373 351.153 576.197 350.699C578.069 350.398 580.772 349.391 582.203 348.461ZM95.3234 253.25C-62.0228 -27.7749 16.6502 112.737 95.3234 253.25V253.25Z" fill="#FD9C94"/>
<path d="M503.344 201.307C495.475 199.896 494.383 197.909 495.106 186.306C497.42 149.142 519.334 124.095 549.454 124.19C564.596 124.237 573.81 132.289 575.094 146.598C577.206 170.138 560.19 193.383 536.117 199.847C529.297 201.678 510.165 202.531 503.344 201.307Z" fill="#CDE491"/>
<path d="M283.873 335.979C278.489 333.159 274.647 327.371 272.145 318.306C270.587 312.664 270.357 307.436 270.401 278.687C270.445 249.073 270.634 245.29 272.189 242.937C274.305 239.734 278.608 239.422 282.09 242.218L284.471 244.13L284.617 272.968C284.697 288.829 285.049 304.231 285.399 307.194C286.425 315.888 290.1 320.368 294.954 318.841C299.042 317.554 300.992 307.8 301.757 284.806C302.434 264.46 303.212 260.607 306.925 259.207C310.617 257.815 313.867 258.832 315.979 262.039C317.534 264.402 317.742 267.181 317.64 284.303C317.51 306.321 315.889 317.165 311.363 326.306C305.915 337.311 294.254 341.414 283.873 335.979Z" fill="#FD9C94"/>
<path d="M426.694 337.295C429.142 332.602 430.549 315.895 429.266 306.75C427.422 293.61 423.047 287.752 419.769 294.037C414.557 304.028 415.614 329.821 421.606 338.887C423.48 341.722 424.562 341.384 426.694 337.295Z" fill="#501616"/>
<path d="M419.628 360.937C408.526 355.818 401.977 338.517 401.977 314.306C401.977 300.05 403.903 289.487 408.207 280.138C412.015 271.869 415.606 268.316 420.864 267.616C428.349 266.621 434.064 271.579 438.827 283.199C443.084 293.587 444.593 302.574 444.64 317.806C444.684 332.565 443.301 340.855 439.227 350.242C435.038 359.9 426.949 364.313 419.628 360.937Z" fill="#FFE6C7"/>
<path d="M479.895 313.557C482.559 310.597 483.807 303.62 483.792 291.756C483.772 274.781 480.844 266.515 474.068 264.298C469.812 262.906 466.684 263.77 465.586 266.642C464.381 269.795 465.532 310.506 466.873 312.168C469.553 315.488 477.403 316.325 479.895 313.557Z" fill="#501616"/>
<path d="M451.558 377.403C450.609 376.822 450.255 362.518 450.034 315.921L449.746 255.197L452.991 252.372C456.204 249.576 464.82 247.306 472.229 247.306C484.181 247.306 493.686 255.583 498.473 270.159C500.92 277.608 501.437 301.196 499.374 311.287C495.895 328.312 490.162 335.325 479.757 335.285C476.36 335.271 472.378 334.491 469.807 333.333C465.858 331.556 465.516 331.538 465.472 333.105C465.446 334.041 465.04 342.351 464.571 351.572C463.759 367.547 463.593 368.501 461.037 371.823C457.97 375.81 453.373 378.516 451.558 377.403Z" fill="#CDE491"/>
<path d="M343.66 383.276C341.592 382.026 339.492 379.448 338.165 376.53C336.077 371.939 336.005 370.303 335.613 318.306L335.208 264.806L330.155 260.384C325.473 256.287 325.139 255.69 325.602 252.268C326.238 247.569 333.408 232.953 337.482 228.053C342.828 221.624 346.909 223.352 350.445 233.543C351.514 236.621 354.467 243.436 357.01 248.688C359.552 253.939 361.632 258.932 361.632 259.784C361.632 260.636 359.589 262.316 357.093 263.519L352.554 265.705L352.477 296.256C352.37 338.931 351.605 383.402 350.96 384.437C350.063 385.874 347.206 385.42 343.66 383.276Z" fill="#FFE6C7"/>
<path d="M519.482 403.416C514.932 401.334 511.502 398.006 510.087 394.301C508.595 390.397 507.434 259.941 508.837 253.908C510.338 247.452 513.314 243.49 518.374 241.212C526.819 237.409 536.866 239.923 541.265 246.938L543.689 250.806L544.197 392.806L541.922 396.806C539.267 401.472 532.538 405.318 527.085 405.285C525.122 405.272 521.701 404.432 519.482 403.416Z" fill="#FFE6C7"/>
<path d="M427.192 476.144C435.457 471.098 459.162 460.028 474.598 454.005C505.893 441.796 529.292 435.109 575.461 425.181C588.498 422.378 600.809 419.254 602.819 418.239C607.342 415.956 611.175 411.544 612.946 406.582C614.58 402.003 614.522 324.578 612.786 192.306C611.668 107.044 611.659 106.794 609.424 102.374C607.837 99.2345 605.867 97.2352 602.67 95.5192C598.24 93.1422 597.823 93.1078 580.504 93.692C561.328 94.3388 531.455 97.1752 509.9 100.395C482.133 104.544 443.252 114.027 424.654 121.187C420.284 122.869 416.534 124.073 416.321 123.861C415.734 123.28 436.931 110.999 448.102 105.447C496.407 81.4444 567.773 61.8472 630.846 55.2663C644.074 53.8862 645.681 54.2624 647.078 59.0662C647.843 61.6986 648.078 119.084 647.872 252.806L647.578 442.806L633.457 443.492C561.351 446.995 502.376 456.272 440.78 473.799C432.068 476.278 424.653 478.305 424.301 478.303C423.95 478.301 425.251 477.329 427.192 476.144Z" fill="#181B31"/>
<path d="M358.015 475.796C308.66 460.496 236.515 448.613 166.879 444.314C155.309 443.6 146.908 442.656 146.475 442.021C146.071 441.428 145.729 355.619 145.714 251.334L145.688 61.7251L147.765 59.108C150.899 55.1568 155.638 54.3326 168.692 55.4684C236.214 61.3431 314.919 85.7643 363.058 115.779C377.819 124.982 378.514 125.801 368.605 122.315C325.926 107.298 279.922 98.8113 217.53 94.4433C197.573 93.046 192.723 93.9103 187.113 99.8637C184.859 102.256 184.591 103.585 183.918 115.709C182.879 134.44 180.587 386.133 181.379 394.582C182.191 403.241 184.086 407.878 188.757 412.631C193.388 417.342 198.915 419.665 213.304 422.945C263.738 434.441 303.752 446.676 333.294 459.632C348.819 466.441 373.592 479.709 370.091 479.339C369.551 479.282 364.117 477.688 358.015 475.796Z" fill="#181B31"/>
<path d="M437.197 494.178C437.764 493.574 460.987 489.562 481.577 486.512C548.847 476.547 608.718 473.567 667.384 479.084C674.15 479.647 680.663 480.264 687.631 480.69L690.74 480.878L690.384 311.003C690.178 212.532 690.765 140.464 691.276 141.003C691.764 141.518 692.442 144.247 694.054 148.236L697.456 156.658V325.198C697.455 417.895 697.288 493.904 697.082 494.108C696.877 494.311 680.643 493.484 661.006 492.271C631.44 490.444 615.681 490.067 569.325 490.077C515.962 490.088 505.193 490.439 447.28 494.055C441.456 494.419 436.917 494.474 437.194 494.178H437.197Z" fill="#FFE6C7"/>
<path d="M374.21 534.584C368.572 532.284 369.701 526.596 369.701 525.258C369.701 523.292 361.498 522.299 333.39 520.864C240.085 516.099 197.379 516.477 107.171 522.865C95.0875 523.72 84.3876 524.165 83.394 523.852C82.4004 523.539 80.2594 521.909 78.6361 520.23L75.6849 517.176L75.1004 163.806L77.4098 159.364C80.3053 153.795 84.233 151.769 94.8488 150.366C101.154 149.533 103.336 148.809 104.829 147.053C106.706 144.847 106.73 147.863 106.129 315.138C105.402 401.702 100.921 459.513 120.398 479.748C150.402 510.919 222.191 475.555 334.901 494.865C361.049 499.456 367.536 500.989 356.078 499.871C352.753 499.547 333.012 498.282 312.209 497.061C262.176 494.124 172.582 493.881 132.814 496.574C121.336 497.202 107.017 504.785 103.588 495.285L98.377 386.057C98.376 324.319 98.8708 248.685 99.4765 217.98C100.082 187.275 100.324 161.902 100.014 161.595C99.1639 160.751 94.5862 164.011 92.7775 166.748C90.692 169.904 90.7947 159.011 91.0759 347.204L91.3186 509.602L99.6398 508.968C144.578 505.547 165.923 504.885 231.014 504.89C296.275 504.895 327.492 505.881 366.846 509.179C376.312 509.972 376.735 510.114 381.184 513.997C383.705 516.197 387.235 518.414 389.026 518.924C395.698 527.023 383.288 538.193 374.21 534.584Z" fill="#FFE6C7"/>
</g>
<defs>
<filter id="filter0_d_3349_40" x="0.479492" y="0" width="721.435" height="543.282" filterUnits="userSpaceOnUse" color-interpolation-filters="sRGB">
<feFlood flood-opacity="0" result="BackgroundImageFix"/>
<feColorMatrix in="SourceAlpha" type="matrix" values="0 0 0 0 0 0 0 0 0 0 0 0 0 0 0 0 0 0 127 0" result="hardAlpha"/>
<feOffset dy="4"/>
<feGaussianBlur stdDeviation="2"/>
<feComposite in2="hardAlpha" operator="out"/>
<feColorMatrix type="matrix" values="0 0 0 0 0 0 0 0 0 0 0 0 0 0 0 0 0 0 0.25 0"/>
<feBlend mode="normal" in2="BackgroundImageFix" result="effect1_dropShadow_3349_40"/>
<feBlend mode="normal" in="SourceGraphic" in2="effect1_dropShadow_3349_40" result="shape"/>
</filter>
</defs>
</svg>
